<?xml version="1.0" encoding="UTF-8"?>
<svg xmlns="http://www.w3.org/2000/svg" version="1.1" viewBox="0 0 128 128">
  <!-- Generator: Adobe Illustrator 29.3.0, SVG Export Plug-In . SVG Version: 2.1.0 Build 146)  -->
  <defs>
    <style>
      .st0 {
        fill: #dfba6c;
      }

      .st1 {
        fill: #e1b048;
      }

      .st2 {
        fill: #67a5ea;
      }

      .st3 {
        fill: #64a7eb;
      }

      .st4 {
        fill: #17081e;
      }

      .st5 {
        fill: #3a6ec1;
      }

      .st6 {
        fill: #414042;
      }

      .st7 {
        fill: #1f1a77;
      }

      .st8 {
        fill: #20111f;
      }

      .st9 {
        fill: #fcddcd;
      }

      .st10 {
        fill: #f2e8dd;
      }

      .st11 {
        fill: #363d52;
        stroke: #212532;
        stroke-width: 4px;
      }

      .st12 {
        fill: #f1eade;
      }

      .st13 {
        fill: #d9b766;
      }

      .st14 {
        fill: #c2aa95;
      }

      .st15 {
        fill: #ee5649;
      }

      .st16 {
        fill: #6090d5;
      }

      .st17 {
        fill: #8f241f;
      }

      .st18 {
        fill: #e1af49;
      }

      .st19 {
        fill: #fff;
      }

      .st20 {
        fill: #89564c;
      }

      .st21 {
        fill: #8c261d;
      }

      .st22 {
        fill: #f6e5d7;
      }

      .st23 {
        fill: #4471c5;
      }

      .st24 {
        fill: #241a75;
      }

      .st25 {
        fill: #842228;
      }

      .st26 {
        fill: #87584c;
      }

      .st27 {
        fill: #231781;
      }

      .st28 {
        fill: #478cbf;
      }

      .st29 {
        fill: #831f25;
      }

      .st30 {
        fill: #6d9adb;
      }

      .st31 {
        fill: #23217a;
      }

      .st32 {
        fill: #201223;
      }

      .st33 {
        fill: #f5eede;
      }

      .st34 {
        fill: #e65d52;
      }
    </style>
  </defs>
  <g id="Layer_1">
    <rect class="st11" x="2" y="2" width="124" height="124" rx="14" ry="14"/>
    <g>
      <path class="st19" d="M22.9,80.3v3.3c27.4,23.8,54.8,23.8,82.2,0v-3.3H22.9Z"/>
      <path class="st28" d="M22.9,80.3l15.4,1.4c.8,0,1.3.5,1.5,1.4l.4,6.8,13.3,1,.8-6.2c.1-.7.6-1.2,1.5-1.5h16.4c.9.3,1.4.8,1.5,1.5l.8,6.2,13.3-1,.4-6.8c.2-.9.7-1.3,1.5-1.4l15.4-1.4v-24.8c2-2.6,3.9-5.4,5.7-8.2-2.4-4-5.2-7.6-8.4-10.9-2.9,1.3-5.7,2.9-8.3,4.7-2.7-2.5-5.7-4.6-8.9-6.5.5-3.4.7-6.9.8-10.3-4-1.9-8.1-3.3-12.4-4.2-1.8,2.9-3.3,5.9-4.6,9-3.3-.5-6.6-.5-9.9,0-1.3-3.1-2.9-6.1-4.6-9-4.3.9-8.5,2.4-12.4,4.2,0,3.4.3,6.9.8,10.3-3.2,1.8-6.2,4-8.9,6.5-2.6-1.8-5.4-3.4-8.3-4.7-3.2,3.3-6,6.9-8.4,10.9,1.8,2.8,3.6,5.6,5.7,8.2v24.8ZM22.9,83.6v3.9c0,27.9,82.1,27.9,82.2,0v-3.9l-13.5,1.2-.5,7c-.1.7-.6,1.1-1.4,1.3l-16.4,1.1c-.8,0-1.3-.4-1.6-1.1l-1-6.6h-13.3l-1,6.6c-.3.7-.8,1.1-1.6,1.1l-16.4-1.1c-.8-.2-1.3-.6-1.4-1.3l-.5-7-13.5-1.2Z"/>
      <path class="st19" d="M61.1,72.9c0,3.4,5.9,3.4,5.9,0v-8.7c0-3.4-5.9-3.4-5.9,0v8.7Z"/>
      <circle class="st19" cx="85.5" cy="65.4" r="9.1"/>
      <circle class="st19" cx="42.5" cy="65.4" r="9.1"/>
    </g>
    <g>
      <circle class="st6" cx="43.3" cy="66.1" r="6.1"/>
      <circle class="st6" cx="84.7" cy="66.1" r="6.1"/>
    </g>
  </g>
  <g id="Layer_2">
    <g>
      <g>
        <g>
          <path class="st4" d="M54.3,5.8c2,.4,3,1,1.2,2.3,2.3,2.2,2,2.8-1.2,2.3.9,4.5-3.6,11-8.1,11.6-1.9,2.6-3.1,2-3.5-1.2-.7.7-1.7,1.5-2.4,1.2-10.7-5.9-15.4-7.2-20.6,6.3l-2.7.7c1.5,5.1.7,7.9-2.3,8.4l-.7,2.8c-4.7,2.9-3.1,10.2,2.3,10.6,8.2.7,6.2-8.1,4.3-12.8-3.3-1.3-2.2-5,1-5.5-1-6.9,13.4-5.1,11.6,1.2,3.5-.6,3.6,3,1.2,4.7,3.5,2.4.7,10.8-2.3,12.8,3.2,1.2,3.9,4.3,2.3,9.3l2.5,1c-2.4,9.8,0,17.1,7.2,22l-.4,2.5c4,1.7,4.7,4.5,0,4.7-.4,2.7-2.8,5.1-7.3,7.1-5.5,3.9-7,6.6-4.4,8,3.8.8,7.1,0,9.9-2.6,1.8.3,2.8,2.3,2.9,6.1,3.2-.3,5.1,2.9,4.7,5.8,1.5.3,3,0,4.3-.8,6.9-10.7,14-10.4,19.7-1.9l1.6,1.6c2.7-.6,4.3-1.7,5.3-4.3l2.9-.3c.5-4.9,2-9,5.7-3.3,3.2-.7,5.9-.4,8.2,1,1.3-3.7-.8-6.9-6.4-9.6-4.1-1.8-6.6-4-7.6-6.7-3.6-1.5-1.6-3.2,1.2-4.7l.2-2.8c5.5-4.6,9.8-10.6,6.3-17.8-.2-2.6-.2-5,2.8-5-.8-4.3,0-8.6,2.3-12.8-3.7,0-6-7.8-2.3-9.3-2-2.4-2.4-4.5,1.2-4.7-2.2-6.7,11.1-7.4,11.6-1.2,3.3.5,4.4,4.2,1.2,5.8.4.9.4,1.8-.1,2.7-8.7,14,17.8,13.2,5.9-3.9-3-.2-3.8-3-2.3-8.1l-2.8-1.1c-3.3-11.6-10.5-11.9-20.1-6.9l-2.6-1.3c.6,3.8-2.4,4.3-4.7,1.2-4.6-1.3-6.7-4.6-5.8-9.3-3.2.9-4.5-.9-2.3-3.5-1.8-1.4-.8-1.9,1.2-2.3h8.1l1.8,5.7c15.9-6.9,27.6-3.9,33.7,12.9.9,2.5.3,5.2,1.4,7.9s4.2,3.8,5.3,7.5c2.9,9.2-3.3,19.9-13.6,19.2-5-.3-8.2-6.7-10.4.6-1.8,5.8.9,7.6,1.2,12.2.4,7.3-4.3,11.6-7.7,17.3,4.1,3.4,14.2,10.4,13.7,16-.5,5.5-5.9,10.2-11.1,11.1-3.3.6-6.5-1-7.8-.7s-3.9,7.1-10.8,7.7-12.7-5.2-13.7-5.2-6.2,5.2-10.6,5.4c-2.2.1-7.1-1.3-9.1-2.4-3-1.7-3.8-5.1-4.4-5.6s-5.3,1.3-8.3.8c-6.4-1-13.2-8.1-10.5-14.6s9.7-10.7,13.1-12v-1.7c-4.3-4.2-8-10-7.7-16.2s2.7-6.7,1.7-11.5c-1.5-7.3-5.2-2.5-9.6-2C7.1,59.5-.2,49.6,4.1,38.8s4.1-4.3,5-6.6.5-5.5,1.4-7.9c4.5-11.4,12.2-18.6,25.4-16,4.8.9,10.6,7.6,10.2-2.6h8.1Z"/>
          <path class="st22" d="M74,5.8c-.4.6-.7,2-1.2,2.3-.6,6.6-16.3,6.8-17.5,0-.4-.3-.7-1.8-1.2-2.3h19.8Z"/>
          <path class="st1" d="M111.3,29c1.9,5.5-1.9,9-4.7,3.5-4.2-.8-6.5-4.7-11.6,1.2-.3,1.1-1,2.1-1.8,1.8-2.2-.9-11.7-13.9-7.5-15.8,14-6.6,20.3-6.9,25.6,9.3Z"/>
          <path class="st12" d="M113.6,37.2c9.4,1,5.9,20.3-5.5,15.4s-6.5-11.6-.3-14.3c-.9-3.4,4.7-4.4,5.8-1.2Z"/>
          <path class="st26" d="M113.6,37.2c-.3,0-5.4,1-5.8,1.2l-1.2-5.8c3.8.7,5.4.4,4.7-3.5.9,2.8,1.4,5.4,2.3,8.1Z"/>
          <g>
            <path class="st18" d="M42.6,20.9c1.5,3.3-5,15.2-9.3,12.8-.4-.8-5.1-3.4-6.4-3.4-2.1,0-3.7,2-5.2,2.3-2.8,5.5-6.7,2.2-4.7-3.5,3.1-9.7,7.8-16.3,18.9-12.5s4.3,2.8,6.7,4.4Z"/>
            <path class="st10" d="M20.7,38c3.4,1.8,5.1,5.7,4,9.4s-4.7,6.1-8.5,5.7-6.9-3.5-7.2-7.3,2.1-7.4,5.8-8.4c1.4-4,5.1-3.5,5.9.6Z"/>
            <path class="st17" d="M46.1,22c-2.8,4.4-5.1,9.1-8.2,13.4s-.9,3.5-3.5,2.9c0-.2-1.1-4.4-1.2-4.7,4.5-1.7,6.9-9,9.3-12.8.7.4,2.6.4,3.5,1.2Z"/>
            <path class="st20" d="M17,29c-.8,3.9.9,4.2,4.7,3.5l-1,5.5c-1.8-.9-3.9-1.2-5.9-.6.8-3,1.4-5.7,2.3-8.4Z"/>
          </g>
        </g>
        <g>
          <g>
            <path class="st15" d="M54.3,10.4l1.6-.4c5.1,4.6,11.9,3.5,17.4.3l2,1.3c1.9,3.2,3.9,6.2,5.8,9.3l2.8.3c2.2,5.8,5.5,10.6,9.8,14.5l.2,2.6c.3,3.4,1.5,6.1,2.3,9.3-.3,3.2-1,7.3-4.4,4.5-13.4-20.4-43.6-19.7-56,1.2-1.9,1.7-2.9,0-3.7-2.2-.2-5.1,2.4-9.3,2.3-12.8,1.2-3.1,8.4-15.1,9.5-15.8s1.4-.5,2.2-.5c2.4-3.9,5.3-8,8.1-11.6Z"/>
            <path class="st21" d="M85.7,19.7c.9,4.4,4.5,9.3,7,13.1s2.3.7,2.3.8c.2.2-1.2,4.4-1.2,4.7-6.2-4.2-9.1-11.5-12.8-17.5,1.8.1,3.1-.4,4.7-1.2Z"/>
            <path class="st25" d="M72.9,8.1c.7,1.2,1.6,2.3,2.3,3.5-7.1,3.4-15.4,6.1-20.9-1.2.5-.6.7-1.6,1.2-2.3,5.9,4,11.5,4.3,17.5,0Z"/>
          </g>
          <g>
            <path class="st33" d="M93.8,60.4c-1.5,6.7.4,5.4.9,10.2s-5.9,13.6-10.2,15.4c-1.2,3.3-9.4,5.4-11.1,2.3-.2.9-.6,2.2-1.3,2.3-4.6.6-16.2,1.3-18.5-2.3-1.5,3.7-8.6,1-9.9-2.3-1.2-.5-6.1-5.1-7-6.4-5.4-7.6-.9-10.9-2.3-19.2.7-16.1,20.1-25.3,35-22.8s25.1,11.1,24.3,22.8Z"/>
            <g>
              <path class="st31" d="M84.5,86l-1.2,4.7c-1.3,2.9-4.4,3.7-9.3,2.3-2.3-.4-5.6.1-8.1,0-.9,3.3-1.8,2.9-3.5,0-2.7-.2-5.5.1-8.1,0-3.7,1.3-5.7.9-5.8-1.2-2.3,2.3-4.2,2.3-4.7-1.2,1.2-1.5,1.2-3.1,0-4.7.9.4,9.4,2.3,9.9,2.3h19.8c.9,0,10-1.9,11.1-2.3Z"/>
              <g>
                <path class="st29" d="M96.1,47.6c1.3,5.3-1.1,7.3-2.3,12.8-10.5-28.3-48.8-28.4-59.3,0-.4-2.5-2.2-6.5-2.3-9.3,2.6,2.2,2.4,0,3.7-1.5,3.2-3.5,5.8-7.2,10.2-9.6,16.9-9.4,37.5-4.6,47.8,11.7l2.3-4.1Z"/>
                <g>
                  <path class="st32" d="M85.7,55.8c-.2,1.4.8,3.8-.7,4.8s-15.7,4.9-15.6,1.6c0-3.6,12.6-8.2,16.3-6.4Z"/>
                  <path class="st8" d="M42.8,60.3c-.6-1,0-3.1-.2-4.5,3.7-1.8,16.2,2.8,16.3,6.4s-15.7-1.2-16.1-1.9Z"/>
                  <path class="st0" d="M77.5,46.5c3.1,5.5-1.4,10-7,8.8-3.8-6.1,1.1-8.8,7-8.8Z"/>
                  <path class="st13" d="M50.8,47.6c13.4-2.5,7.9,11.3,1.1,6.5-1.7-1.2-1-4.6-1.1-6.5Z"/>
                  <path class="st14" d="M66.8,63.1c4.2,4.4-3.5,9.7-6.2,4.4s3.5-7.2,6.2-4.4Z"/>
                  <g>
                    <path class="st34" d="M41.1,68.7c3.5-1.1,6.6,1.8,10.3,2.2,5.8.7,16.1.3,22.2,0,3.5-.2,16.7-4.8,15.6,1.5s-14.2,11-17.1,12.1-6.3,1.8-10.2,1.5c-5-.4-30.9-14-20.8-17.3Z"/>
                    <path class="st9" d="M78.7,75.6c-.2,1.7-4.2,2.8-5.6,3.2-6,1.7-10.1,2.1-16.3.7s-6.5-2.1-7.2-3.9h29.1Z"/>
                  </g>
                </g>
              </g>
            </g>
          </g>
        </g>
      </g>
      <g>
        <path class="st3" d="M74,93c5.8-1.6,11.6,3.8,9.3,9.3,2.3.4,2.3,2.7,0,7-1.5,2.4-1.8,4.7-5,6.1s-2.6-1.3-3.1-1.5c-4.4-3.2-7.2-8.3-8.1-15.1-2.7-1.6-4.2-3.9-1.2-5.8.6-3.6,7.2-3.4,8.1,0Z"/>
        <path class="st2" d="M54.3,93c1.3-3.3,6.9-3.5,8.1,0,2.8-.1,2.9,4.1,0,4.7.4.9.2,1.6-.2,2.5-1,2.3-4.5,9.8-5.7,11.4-1.9,2.5-3.7,4.4-7,3.6-2.8-1.5-3.4-3.2-4.7-5.8-1.2-3.1-1.2-5,0-5.8-2.1-5.8,3.1-10.7,9.3-10.5Z"/>
        <path class="st27" d="M67.1,98.8c6,3.2,3.9,10.4,8.1,15.1-.1,0-1.5,1.1-2.3.5-3.1-2-4.3-6.4-8.6-6.3-5.2,0-7.9,10.6-14.6,7,8.3-.8,5.7-16.1,12.8-17.5,1.9-3.9,3.2-2.2,4.7,1.2Z"/>
        <path class="st16" d="M83.3,90.7c3,.2,14.7,8.4,16.3,11,2.6,4.1.8,4.1-2.4,5.3l-3.3-.4c-3.5-4.3-7.1-5.7-10.7-4.2-.8-3.5-5.9-8.7-9.3-9.3,2-1.3,7.1-2.5,9.3-2.3Z"/>
        <path class="st30" d="M48.4,91.9c1.1,4.5-4.2,7.2-8.1,7,.3,4.1-4,8.1-8.1,7-.7.5-3.2,2.5-3.5,2.3-5.6-5.1,12.4-17.1,15.1-17.5s3.3,1,4.7,1.2Z"/>
        <path class="st24" d="M97.3,107c-2.3.8-8.5,2.1-10.2.8s-.1-1.9-.3-2c-2.2-1.6-2.4,1.8-3.5,3.5.2-2.2-.3-4.9,0-7s1.5-2,1.3-3.3c2.7-2.2,10.9,5.6,12.7,8Z"/>
        <path class="st7" d="M40.3,98.8c4.3-3,5.9-1.5,4.7,4.7.3,1.7-.2,4,0,5.8-.8-1.6-1.6-2.5-1.2-4.7-3.1,2.9-8.6,6.3-11.6,1.2,2.8-2.2,5.3-4.8,8.1-7Z"/>
        <path class="st23" d="M65.9,93l1.2,5.8c-1.4-.7-3.1-1.5-4.7-1.2v-4.7c1.2,0,2.3,0,3.5,0Z"/>
        <path class="st5" d="M54.3,93c-3.9,1.2-9.4,6.1-9.3,10.5-.5-3.1-1.4-5.8-4.7-4.7,2.9-2.2,6.5-3.5,8.1-7,2.2.2,5.1,1.1,5.8,1.2Z"/>
      </g>
    </g>
  </g>
</svg>